# xmcd
#
# Track frame offsets:
#	150
#	14945
#	32643
#	47059
#	62924
#	77607
#	96243
#	110141
#	127341
#	143798
#	156900
#	173519
#	188485
#	204404
#	220551
#	237071
#
# Disc length: 3344 seconds
#
# Revision: 4
# Processed by: cddbd v1.5.1PL0 Copyright (c) Steve Scherf et al.
# Submitted via: audiograbber 1.83.01
#
DISCID=df0d0e10
DTITLE=1998-02 Country Radio - 1998-02 Country Radio
DYEAR=1998
DGENRE=Country
TTITLE0=Alabama - She's Got That Look In Her Eyes
TTITLE1=Toby Keith - Dream Walkin'
TTITLE2=Martina McBride - Valentine
TTITLE3=Tracy Byrd - I'm From The Country
TTITLE4=Shania Twain - You're Still The One
TTITLE5=Sawyer Brown - Another Side
TTITLE6=Matraca Berg - Back In The Saddle
TTITLE7=The Mavericks - To Be With You
TTITLE8=Lee Roy Parnell - All That Matters Anymore
TTITLE9=Gary Allan - It Would Be You
TTITLE10=The Nitty Gritty Dirt Band - Bang, Bang, Bang
TTITLE11=Fizz (featuring Crystal Gayle) - When I Dream
TTITLE12=Brad Hawkins - We Lose
TTITLE13=Bellamy Brothers - Catahoula
TTITLE14=Georgia Blue - Prisoner Of Love
TTITLE15=Ray Obe Obermeyer - How Sweet It Is To Be In Love With You
EXTD=
EXTT0=
EXTT1=
EXTT2=
EXTT3=
EXTT4=
EXTT5=
EXTT6=
EXTT7=
EXTT8=
EXTT9=
EXTT10=
EXTT11=
EXTT12=
EXTT13=
EXTT14=
EXTT15=
PLAYORDER=
